<?xml version="1.0" encoding="UTF-8"?>
<!DOCTYPE svg PUBLIC "-//W3C//DTD SVG 1.1//EN" "http://www.w3.org/Graphics/SVG/1.1/DTD/svg11.dtd">
<svg version="1.2" width="240mm" height="240mm" viewBox="0 0 24000 24000" preserveAspectRatio="xMidYMid" fill-rule="evenodd" stroke-width="28.222" stroke-linejoin="round" xmlns="http://www.w3.org/2000/svg" xmlns:ooo="http://xml.openoffice.org/svg/export" xmlns:xlink="http://www.w3.org/1999/xlink" xmlns:presentation="http://sun.com/xmlns/staroffice/presentation" xmlns:smil="http://www.w3.org/2001/SMIL20/" xmlns:anim="urn:oasis:names:tc:opendocument:xmlns:animation:1.0" xml:space="preserve">
 <defs class="ClipPathGroup">
  <clipPath id="presentation_clip_path" clipPathUnits="userSpaceOnUse">
   <rect x="0" y="0" width="24000" height="24000"/>
  </clipPath>
 </defs>
 <defs class="TextShapeIndex">
  <g ooo:slide="id1" ooo:id-list="id3 id4"/>
 </defs>
 <defs class="EmbeddedBulletChars">
  <g id="bullet-char-template(57356)" transform="scale(0.00048828125,-0.00048828125)">
   <path d="M 580,1141 L 1163,571 580,0 -4,571 580,1141 Z"/>
  </g>
  <g id="bullet-char-template(57354)" transform="scale(0.00048828125,-0.00048828125)">
   <path d="M 8,1128 L 1137,1128 1137,0 8,0 8,1128 Z"/>
  </g>
  <g id="bullet-char-template(10146)" transform="scale(0.00048828125,-0.00048828125)">
   <path d="M 174,0 L 602,739 174,1481 1456,739 174,0 Z M 1358,739 L 309,1346 659,739 1358,739 Z"/>
  </g>
  <g id="bullet-char-template(10132)" transform="scale(0.00048828125,-0.00048828125)">
   <path d="M 2015,739 L 1276,0 717,0 1260,543 174,543 174,936 1260,936 717,1481 1274,1481 2015,739 Z"/>
  </g>
  <g id="bullet-char-template(10007)" transform="scale(0.00048828125,-0.00048828125)">
   <path d="M 0,-2 C -7,14 -16,27 -25,37 L 356,567 C 262,823 215,952 215,954 215,979 228,992 255,992 264,992 276,990 289,987 310,991 331,999 354,1012 L 381,999 492,748 772,1049 836,1024 860,1049 C 881,1039 901,1025 922,1006 886,937 835,863 770,784 769,783 710,716 594,584 L 774,223 C 774,196 753,168 711,139 L 727,119 C 717,90 699,76 672,76 641,76 570,178 457,381 L 164,-76 C 142,-110 111,-127 72,-127 30,-127 9,-110 8,-76 1,-67 -2,-52 -2,-32 -2,-23 -1,-13 0,-2 Z"/>
  </g>
  <g id="bullet-char-template(10004)" transform="scale(0.00048828125,-0.00048828125)">
   <path d="M 285,-33 C 182,-33 111,30 74,156 52,228 41,333 41,471 41,549 55,616 82,672 116,743 169,778 240,778 293,778 328,747 346,684 L 369,508 C 377,444 397,411 428,410 L 1163,1116 C 1174,1127 1196,1133 1229,1133 1271,1133 1292,1118 1292,1087 L 1292,965 C 1292,929 1282,901 1262,881 L 442,47 C 390,-6 338,-33 285,-33 Z"/>
  </g>
  <g id="bullet-char-template(9679)" transform="scale(0.00048828125,-0.00048828125)">
   <path d="M 813,0 C 632,0 489,54 383,161 276,268 223,411 223,592 223,773 276,916 383,1023 489,1130 632,1184 813,1184 992,1184 1136,1130 1245,1023 1353,916 1407,772 1407,592 1407,412 1353,268 1245,161 1136,54 992,0 813,0 Z"/>
  </g>
  <g id="bullet-char-template(8226)" transform="scale(0.00048828125,-0.00048828125)">
   <path d="M 346,457 C 273,457 209,483 155,535 101,586 74,649 74,723 74,796 101,859 155,911 209,963 273,989 346,989 419,989 480,963 531,910 582,859 608,796 608,723 608,648 583,586 532,535 482,483 420,457 346,457 Z"/>
  </g>
  <g id="bullet-char-template(8211)" transform="scale(0.00048828125,-0.00048828125)">
   <path d="M -4,459 L 1135,459 1135,606 -4,606 -4,459 Z"/>
  </g>
 </defs>
 <defs class="TextEmbeddedBitmaps"/>
 <g>
  <g id="id2" class="Master_Slide">
   <g id="bg-id2" class="Background"/>
   <g id="bo-id2" class="BackgroundObjects"/>
  </g>
 </g>
 <g class="SlideGroup">
  <g>
   <g id="id1" class="Slide" clip-path="url(#presentation_clip_path)">
    <g class="Page">
     <g class="Group">
      <g class="com.sun.star.drawing.ClosedBezierShape">
       <g id="id3">
        <rect class="BoundingBox" stroke="none" fill="none" x="1499" y="7504" width="11726" height="11726"/>
        <path fill="rgb(190,190,190)" stroke="none" d="M 12862,12052 L 11771,11934 C 11621,11918 11495,11820 11438,11681 11437,11679 11436,11678 11436,11676 11378,11537 11398,11379 11492,11262 L 12181,10406 C 12310,10245 12298,10012 12151,9865 L 10863,8577 C 10716,8430 10483,8418 10322,8548 L 9466,9236 C 9349,9330 9191,9350 9053,9293 9051,9293 9050,9292 9048,9291 8909,9234 8810,9108 8794,8958 L 8676,7866 C 8654,7660 8480,7504 8273,7504 L 6451,7504 C 6244,7504 6070,7660 6048,7866 L 5929,8958 C 5913,9108 5814,9234 5675,9291 5674,9292 5672,9293 5671,9293 5532,9350 5374,9330 5257,9236 L 4401,8548 C 4240,8418 4007,8430 3860,8577 L 2572,9865 C 2426,10012 2413,10245 2543,10406 L 3231,11262 C 3325,11379 3345,11537 3287,11676 3287,11678 3286,11679 3285,11681 3228,11820 3102,11918 2952,11934 L 1861,12052 C 1655,12075 1499,12249 1499,12456 L 1499,14278 C 1499,14485 1655,14658 1861,14681 L 2952,14799 C 3102,14815 3228,14913 3285,15052 3286,15054 3287,15055 3287,15057 3345,15196 3325,15355 3231,15472 L 2543,16327 C 2413,16488 2425,16721 2572,16868 L 3860,18156 C 4007,18303 4240,18315 4401,18186 L 5257,17497 C 5374,17403 5532,17383 5671,17440 5672,17441 5674,17441 5675,17442 5814,17499 5913,17626 5929,17775 L 6047,18867 C 6070,19073 6243,19229 6451,19229 L 8273,19229 C 8480,19229 8653,19073 8676,18867 L 8794,17775 C 8810,17626 8909,17499 9048,17442 9050,17441 9051,17441 9053,17440 9191,17383 9349,17403 9466,17497 L 10322,18186 C 10483,18315 10716,18303 10863,18156 L 12151,16868 C 12298,16721 12310,16488 12180,16327 L 11492,15472 C 11398,15355 11378,15196 11436,15057 11436,15055 11437,15054 11438,15052 11495,14913 11621,14815 11771,14799 L 12862,14681 C 13068,14658 13224,14485 13224,14278 L 13224,12456 C 13224,12249 13068,12075 12862,12052 Z M 7362,15194 C 6352,15194 5534,14376 5534,13367 5534,12357 6352,11539 7362,11539 8371,11539 9189,12357 9189,13367 9189,14376 8371,15194 7362,15194 Z"/>
       </g>
      </g>
      <g class="com.sun.star.drawing.ClosedBezierShape">
       <g id="id4">
        <rect class="BoundingBox" stroke="none" fill="none" x="12663" y="4322" width="9839" height="9838"/>
        <path fill="rgb(190,190,190)" stroke="none" d="M 22314,10226 L 21565,9634 C 21446,9540 21379,9395 21379,9243 21379,9241 21379,9240 21379,9238 21379,9086 21445,8941 21565,8846 L 22314,8254 C 22486,8119 22547,7886 22463,7684 L 22134,6889 C 22050,6687 21843,6565 21625,6591 L 20677,6702 C 20526,6720 20376,6664 20269,6556 20267,6555 20266,6554 20265,6553 20158,6445 20102,6296 20120,6145 L 20231,5197 C 20257,4980 20135,4772 19933,4688 L 19138,4359 C 18936,4276 18703,4336 18568,4508 L 17976,5257 C 17882,5377 17737,5443 17585,5443 17583,5443 17582,5443 17580,5443 17428,5443 17283,5377 17188,5257 L 16597,4508 C 16461,4336 16228,4275 16026,4359 L 15231,4688 C 15029,4772 14907,4980 14933,5197 L 15044,6145 C 15062,6297 15007,6446 14899,6554 14897,6555 14896,6556 14895,6557 14787,6665 14638,6720 14487,6702 L 13539,6591 C 13322,6565 13114,6687 13030,6889 L 12701,7684 C 12618,7886 12678,8119 12850,8255 L 13599,8846 C 13719,8941 13785,9085 13785,9237 13785,9239 13785,9241 13785,9242 13785,9395 13719,9539 13599,9634 L 12850,10226 C 12678,10361 12617,10594 12701,10796 L 13030,11591 C 13114,11793 13322,11915 13539,11889 L 14487,11778 C 14639,11760 14788,11816 14896,11924 14897,11925 14898,11926 14899,11927 15007,12035 15062,12184 15044,12335 L 14933,13283 C 14907,13501 15029,13708 15231,13792 L 16026,14121 C 16228,14205 16461,14144 16597,13972 L 17188,13223 C 17283,13104 17427,13037 17579,13037 17581,13037 17582,13037 17584,13037 17737,13037 17881,13103 17976,13223 L 18568,13972 C 18703,14144 18936,14205 19138,14121 L 19933,13792 C 20135,13708 20257,13501 20231,13283 L 20120,12335 C 20102,12184 20158,12034 20266,11927 20267,11925 20268,11924 20269,11923 20377,11816 20526,11760 20677,11778 L 21625,11890 C 21843,11915 22050,11793 22134,11591 L 22463,10796 C 22547,10594 22486,10361 22314,10226 Z M 18068,10656 C 17306,10972 16432,10610 16116,9847 15800,9085 16162,8211 16925,7895 17687,7580 18561,7942 18877,8704 19192,9466 18830,10340 18068,10656 Z"/>
       </g>
      </g>
     </g>
    </g>
   </g>
  </g>
 </g>
</svg>